<svg width="16" height="16" viewBox="0 0 16 16" fill="none" xmlns="http://www.w3.org/2000/svg">
<path d="M2.25 2.53125C3.77083 1.01042 5.60417 0.25 7.75 0.25C9.89583 0.25 11.7188 1.01042 13.2188 2.53125C14.7396 4.03125 15.5 5.85417 15.5 8C15.5 10.1458 14.7396 11.9792 13.2188 13.5C11.7188 15 9.89583 15.75 7.75 15.75C5.60417 15.75 3.77083 15 2.25 13.5C0.75 11.9792 0 10.1458 0 8C0 5.85417 0.75 4.03125 2.25 2.53125ZM14 8C14 6.27083 13.3854 4.80208 12.1562 3.59375C10.9479 2.36458 9.47917 1.75 7.75 1.75C7.72917 1.75 7.6875 1.75 7.625 1.75H7.5625L6.65625 2.4375C6.59375 2.47917 6.5625 2.54167 6.5625 2.625V3.25C6.5625 3.41667 6.64583 3.5 6.8125 3.5H7.3125C7.47917 3.5 7.5625 3.41667 7.5625 3.25V3L8.0625 2.5H8.71875C8.80208 2.5 8.875 2.54167 8.9375 2.625C9.02083 2.6875 9.0625 2.77083 9.0625 2.875C9.0625 2.95833 9.03125 3.04167 8.96875 3.125L8.125 3.9375C8.08333 3.97917 8.04167 4.01042 8 4.03125L6.75 4.4375C6.625 4.47917 6.5625 4.5625 6.5625 4.6875C6.5625 4.89583 6.48958 5.08333 6.34375 5.25L5.71875 5.875C5.61458 5.95833 5.5625 6.07292 5.5625 6.21875V7C5.5625 7.14583 5.60417 7.27083 5.6875 7.375C5.79167 7.45833 5.91667 7.5 6.0625 7.5H6.75C6.95833 7.5 7.10417 7.41667 7.1875 7.25L7.5 6.65625C7.54167 6.55208 7.61458 6.5 7.71875 6.5H7.8125C7.97917 6.5 8.0625 6.58333 8.0625 6.75C8.0625 6.91667 8.14583 7 8.3125 7H8.8125C8.97917 7 9.0625 6.91667 9.0625 6.75V6.6875C9.0625 6.5625 9.125 6.48958 9.25 6.46875L10.2188 6.125C10.4479 6.04167 10.5625 5.88542 10.5625 5.65625V5.5C10.5625 5.375 10.6042 5.26042 10.6875 5.15625C10.7917 5.05208 10.9167 5 11.0625 5H12.2188C12.3021 5 12.375 5.04167 12.4375 5.125C12.5208 5.1875 12.5625 5.27083 12.5625 5.375V5.65625C12.5625 5.76042 12.5208 5.84375 12.4375 5.90625C12.375 5.96875 12.3021 6 12.2188 6H11.2188C11.1146 6 11.0312 6.04167 10.9688 6.125L10.6562 6.40625C10.5938 6.46875 10.5625 6.55208 10.5625 6.65625C10.5625 6.76042 10.5938 6.84375 10.6562 6.90625C10.7396 6.96875 10.8229 7 10.9062 7H11.4062C11.5104 7 11.5938 7.04167 11.6562 7.125L11.9688 7.40625C12.0312 7.46875 12.0625 7.55208 12.0625 7.65625V7.9375L11.6875 8.3125C11.5 8.5 11.5 8.67708 11.6875 8.84375L12.6875 9.875C12.7708 9.95833 12.8854 10 13.0312 10H13.6562C13.8854 9.35417 14 8.6875 14 8ZM4.15625 4.40625C4.09375 4.46875 4.0625 4.55208 4.0625 4.65625C4.0625 4.76042 4.09375 4.84375 4.15625 4.90625C4.23958 4.96875 4.32292 5 4.40625 5H4.90625C5.01042 5 5.09375 4.96875 5.15625 4.90625L5.46875 4.625C5.53125 4.54167 5.5625 4.45833 5.5625 4.375V3.875C5.5625 3.77083 5.52083 3.6875 5.4375 3.625C5.375 3.54167 5.29167 3.5 5.1875 3.5C5.10417 3.5 5.03125 3.54167 4.96875 3.625L4.15625 4.40625ZM8.0625 14.25C9.16667 14.1875 10.1667 13.8646 11.0625 13.2812C11.9792 12.6979 12.6979 11.9375 13.2188 11H12.8125C12.6458 11 12.5104 10.9479 12.4062 10.8438L11.8438 10.3125C11.6562 10.1042 11.4271 10 11.1562 10H10.5625L9.21875 8.84375C8.96875 8.61458 8.66667 8.5 8.3125 8.5H7.3125C7.0625 8.5 6.82292 8.57292 6.59375 8.71875L5.25 9.53125C4.79167 9.80208 4.5625 10.2083 4.5625 10.75V11.5C4.5625 11.9583 4.75 12.3333 5.125 12.625L5.8125 13.1562C6.14583 13.3854 6.52083 13.5 6.9375 13.5H7.5625C7.70833 13.5 7.82292 13.5521 7.90625 13.6562C8.01042 13.7604 8.0625 13.875 8.0625 14V14.25Z" fill="#F9B6A6"/>
</svg>
