<svg width="42" height="48" viewBox="0 0 42 48" fill="none" xmlns="http://www.w3.org/2000/svg">
<path d="M29.4375 20.5312C27.125 22.8438 24.3125 24 21 24C17.6875 24 14.8438 22.8438 12.4688 20.5312C10.1562 18.1562 9 15.3125 9 12C9 8.6875 10.1562 5.875 12.4688 3.5625C14.8438 1.1875 17.6875 0 21 0C24.3125 0 27.125 1.1875 29.4375 3.5625C31.8125 5.875 33 8.6875 33 12C33 15.3125 31.8125 18.1562 29.4375 20.5312ZM29.4375 27C32.875 27 35.8125 28.25 38.25 30.75C40.75 33.1875 42 36.125 42 39.5625V43.5C42 44.75 41.5625 45.8125 40.6875 46.6875C39.8125 47.5625 38.75 48 37.5 48H4.5C3.25 48 2.1875 47.5625 1.3125 46.6875C0.4375 45.8125 0 44.75 0 43.5V39.5625C0 36.125 1.21875 33.1875 3.65625 30.75C6.15625 28.25 9.125 27 12.5625 27H14.1562C16.3438 28 18.625 28.5 21 28.5C23.375 28.5 25.6562 28 27.8438 27H29.4375Z" fill="white"/>
</svg>
